v 11.305434 38.234230 0.000006
v 41.411457 50.048264 0.000008
v 41.411457 52.735992 37.402729
v 11.305438 47.636883 40.129360
v 18.683462 124.620430 0.000020
v -9.184886 123.615364 0.000020
v -9.184884 119.867310 40.129372
v 18.683462 120.872360 40.129372
v -36.248291 55.609318 40.129360
v -46.055233 52.976318 0.000009
v -57.743038 109.841728 20.235622
v -62.844391 109.841728 0.000018
v -26.515188 127.677284 20.235626
v -67.995514 137.476364 13.931513
v -69.907631 137.476364 0.000022
v -67.626480 163.164856 13.931514
v -75.301506 152.531464 4.071021
v -75.362320 144.094894 4.071022
v -75.362320 144.094894 0.000023
v -29.160931 145.761871 13.931513
v 46.551811 125.625465 0.000020
v 46.551811 121.877403 40.129372
v 76.725479 135.379593 11.169972
v 80.113449 136.626083 0.000022
v -67.626472 169.385712 0.000028
v -75.301506 152.531464 0.000025
v -31.142700 162.351288 13.931514
v -45.337902 170.073120 13.931515
v -21.848536 127.677284 0.000021
v -24.494284 145.761871 0.000024
v -40.681408 176.548416 0.000029
v 0.133969 38.796642 30.596121
v 1.293951 35.657623 16.313713
v 76.725479 117.984528 11.169970
v 80.113449 119.231018 0.000019
v -26.339956 168.582397 0.000027
v -12.553104 30.620268 16.313713
v -13.713085 33.759289 30.596121
v -0.168625 29.224886 21.262794
v -7.306846 26.628109 21.262794
v -7.904822 28.246284 28.625441
v -0.766601 30.843067 28.625443
v 0.928681 22.836405 29.353041
v 1.346319 21.706240 24.210835
v -3.639143 19.892603 24.210835
v -4.056781 21.022768 29.353041
v 11.305438 47.636898 -40.129345
v 41.411457 52.736008 -37.402714
v 18.683462 120.872375 -40.129333
v -9.184884 119.867325 -40.129333
v -36.248291 55.609333 -40.129345
v -57.743038 109.841728 -20.235588
v -26.515188 127.677284 -20.235584
v -67.995514 137.476364 -13.931469
v -75.362320 144.094894 -4.070975
v -75.301506 152.531464 -4.070971
v -67.626480 163.164856 -13.931460
v -29.160931 145.761871 -13.931465
v 76.725479 135.379593 -11.169929
v 46.551811 121.877419 -40.129333
v -45.337902 170.073120 -13.931459
v -31.142700 162.351288 -13.931460
v 1.293951 35.657631 -16.313702
v 0.133969 38.796650 -30.596109
v 76.725479 117.984528 -11.169931
v -12.553104 30.620272 -16.313702
v -13.713085 33.759296 -30.596109
v -7.306846 26.628117 -21.262787
v -0.168625 29.224894 -21.262787
v -0.766601 30.843075 -28.625431
v -7.904822 28.246292 -28.625433
v 1.346319 21.706247 -24.210827
v 0.928681 22.836416 -29.353033
v -3.639143 19.892611 -24.210827
v -4.056781 21.022779 -29.353033
v -61.562210 177.932617 -1.826129
v -52.283920 179.151260 -1.906771
v -54.175125 169.836258 -2.562902
v -60.911396 168.045593 -2.562902
v -79.081085 161.542099 -1.745491
v -74.717590 164.810150 -1.745490
v -71.485168 157.827774 -2.562905
v -73.403923 153.614212 -2.562906
v -80.596153 155.904861 -1.745492
v -80.596153 155.904861 1.745542
v -84.024582 162.409088 0.928130
v -84.024582 162.409088 -0.928077
v -73.823639 170.867691 -1.760736
v -69.452026 173.856094 -1.814312
v -67.647652 166.254898 -2.562902
v -69.566414 162.041351 -2.562903
v -73.823639 170.867691 1.730297
v -69.566414 162.041351 2.562956
v -67.647652 166.254898 2.562957
v -69.452026 173.856094 1.676721
v -46.370720 180.969254 -1.745487
v -37.526730 179.929382 -1.745487
v -40.702591 173.417618 -2.562901
v -47.438858 171.626938 -2.562902
v -46.370720 180.969254 1.745546
v -47.438858 171.626938 2.562958
v -40.702591 173.417618 2.562958
v -37.526730 179.929382 1.745546
v -79.081085 161.542099 1.745543
v -73.403923 153.614212 2.562956
v -71.485168 157.827774 2.562956
v -74.717590 164.810150 1.745544
v -84.047440 169.469971 0.928131
v -84.047440 169.469971 -0.928076
v -62.213028 187.819656 0.766849
v -62.213028 187.819656 -1.089355
v -70.739212 181.877258 -0.928073
v -70.739212 181.877258 0.928133
v -78.080849 179.694046 0.897638
v -78.080849 179.694046 -0.958568
v -79.441689 173.192459 -0.851417
v -79.441689 173.192459 1.004790
v -45.302586 190.311569 0.928134
v -45.302586 190.311569 -0.928071
v -52.850403 188.886230 -0.928071
v -52.850403 188.886230 0.928134
v -61.562210 177.932617 1.664903
v -60.911396 168.045593 2.562957
v -54.175125 169.836258 2.562957
v -52.283920 179.151260 1.584261
v -37.754772 186.441132 -0.928072
v -37.754772 186.441132 0.928133
v -53.686844 188.466248 -1.250639
v -53.686844 188.466248 0.605565
v -53.512760 179.361237 1.745546
v -53.512760 179.361237 -1.745486
v -70.840500 174.066086 1.745545
v -70.840500 174.066086 -1.745488
v -72.691788 180.017578 -1.065721
v -72.691788 180.017578 0.790484
v -76.597191 165.510117 1.783873
v -76.597191 165.510117 -1.707161
v -80.505836 171.792511 -0.928075
v -80.505836 171.792511 0.928132
v -75.322685 149.400650 2.562955
v -75.322685 149.400650 -2.562906
v -67.458847 124.786469 6.059521
v -62.311676 142.735336 1.349456
v -62.506489 143.384247 3.983959
v -67.360008 125.536507 10.024934
v -79.002930 127.502678 5.315887
v -78.904083 128.252731 9.281298
v -74.050575 146.100494 3.240325
v -73.855766 145.451538 0.605825
v -68.083725 144.093445 0.977641
v -74.365013 122.758614 6.607532
v -68.278534 144.742371 3.612143
v -74.266182 123.508667 10.572943
v -67.458847 124.786469 -6.059480
v -67.360008 125.536507 -10.024894
v -62.506489 143.384247 -3.983913
v -62.311676 142.735336 -1.349409
v -79.002930 127.502678 -5.315845
v -73.855766 145.451538 -0.605777
v -74.050575 146.100494 -3.240277
v -78.904083 128.252731 -9.281256
v -68.083725 144.093445 -0.977594
v -74.365013 122.758614 -6.607492
v -68.278534 144.742371 -3.612095
v -74.266182 123.508667 -10.572903
v -85.103455 147.545120 0.000024
v -85.103455 147.545120 3.048767
v -87.201706 138.606155 0.000023
v -82.824944 141.652008 3.048768
v -82.824944 141.652008 0.000023
v -11.950723 5.949986 31.153399
v -11.202639 5.949985 36.269302
v -6.472661 5.949985 36.075840
v 0.170735 1.292081 24.696032
v 0.170735 3.575163 24.696032
v 1.137729 2.938065 25.811411
v 1.137729 1.929180 25.811411
v -7.220747 5.949986 30.959932
v -11.950723 1.292080 31.153397
v -6.472661 1.292080 36.075840
v -11.202639 1.292079 36.269302
v -11.653757 4.521613 38.052593
v -11.653757 2.251994 38.052593
v -15.400565 1.292078 46.789959
v -15.400565 4.974148 46.789959
v -13.163202 2.251995 36.793575
v -13.163202 4.428890 36.793575
v -22.134680 4.150466 40.600124
v -22.134680 1.292079 40.600124
v -3.190092 5.303678 29.737335
v -6.827491 5.303678 28.934315
v -14.949672 2.252202 47.809628
v -14.949672 4.014025 47.809628
v -7.513233 5.521562 38.123566
v -12.448047 4.974148 49.290428
v -7.513233 1.292079 38.123566
v -12.448047 1.292077 49.290428
v -23.226124 3.326556 39.773651
v -23.226124 2.115991 39.773651
v -14.056709 5.348775 32.131172
v -24.626884 4.150466 37.013199
v -14.056709 1.292080 32.131172
v -24.626884 1.292079 37.013199
v -6.827491 1.292081 28.934315
v -2.775038 1.292080 32.575745
v 3.636019 1.292081 28.693062
v 2.669026 1.929179 27.577684
v -2.775038 5.303678 32.575745
v 3.636019 3.575163 28.693062
v 2.669026 2.938065 27.577684
v -24.281607 2.115991 38.254539
v -24.281607 3.326556 38.254539
v -13.536930 4.014025 49.006069
v -13.536930 2.252202 49.006069
v -85.103455 147.545120 -3.048719
v -82.824944 141.652008 -3.048722
v -11.202639 5.949996 -36.269302
v -11.950723 5.949996 -31.153395
v -6.472661 5.949996 -36.075840
v 0.170735 1.292089 -24.696032
v 1.137729 1.929188 -25.811411
v 1.137729 2.938074 -25.811411
v 0.170735 3.575171 -24.696032
v -7.220747 5.949996 -30.959929
v -11.950723 1.292091 -31.153397
v -11.202639 1.292091 -36.269302
v -6.472661 1.292091 -36.075840
v -11.653757 4.521625 -38.052593
v -15.400565 4.974164 -46.789959
v -15.400565 1.292093 -46.789959
v -11.653757 2.252007 -38.052593
v -13.163202 2.252007 -36.793575
v -22.134680 1.292092 -40.600124
v -22.134680 4.150479 -40.600124
v -13.163202 4.428903 -36.793575
v -6.827491 5.303688 -28.934315
v -3.190092 5.303688 -29.737335
v -14.949672 4.014040 -47.809628
v -14.949672 2.252218 -47.809628
v -7.513233 5.521574 -38.123566
v -12.448047 4.974164 -49.290428
v -7.513233 1.292092 -38.123566
v -12.448047 1.292093 -49.290428
v -23.226124 2.116004 -39.773651
v -23.226124 3.326569 -39.773651
v -24.626884 4.150479 -37.013199
v -14.056709 5.348786 -32.131172
v -14.056709 1.292091 -32.131172
v -24.626884 1.292091 -37.013199
v -2.775038 1.292091 -32.575745
v -6.827491 1.292090 -28.934315
v 3.636019 1.292090 -28.693062
v 2.669026 1.929188 -27.577684
v -2.775038 5.303688 -32.575745
v 3.636019 3.575172 -28.693062
v 2.669026 2.938074 -27.577684
v -24.281607 2.116004 -38.254539
v -24.281607 3.326569 -38.254539
v -13.536930 4.014041 -49.006069
v -13.536930 2.252218 -49.006069
v -64.196144 155.478958 14.859526
v -65.079018 153.347488 14.859525
v -62.064678 153.347488 14.859525
v -59.050323 153.347488 14.859525
v -59.933216 155.478958 14.859526
v -62.064678 150.333145 14.859525
v -59.933216 151.216019 14.859525
v -64.196144 151.216019 14.859525
v -62.064678 156.361832 14.859526
v -64.196144 155.478958 9.931511
v -65.079018 153.347488 9.931510
v -59.050323 153.347488 9.931510
v -59.933216 155.478958 9.931511
v -62.064678 150.333145 9.931510
v -59.933216 151.216019 9.931510
v -64.196144 151.216019 9.931510
v -62.064678 156.361832 9.931511
v -64.196144 155.478958 -14.859474
v -62.064678 153.347488 -14.859475
v -65.079018 153.347488 -14.859475
v -59.050323 153.347488 -14.859475
v -59.933216 155.478958 -14.859474
v -62.064678 150.333145 -14.859475
v -59.933216 151.216019 -14.859475
v -64.196144 151.216019 -14.859475
v -62.064678 156.361832 -14.859474
v -65.079018 153.347488 -9.931460
v -64.196144 155.478958 -9.931459
v -59.933216 155.478958 -9.931459
v -59.050323 153.347488 -9.931460
v -59.933216 151.216019 -9.931460
v -62.064678 150.333145 -9.931460
v -64.196144 151.216019 -9.931460
v -62.064678 156.361832 -9.931459
v 4.474904 1.833643 26.320278
v 3.037879 1.833643 24.480375
v 4.938028 1.424683 23.149340
v 6.280783 1.424683 25.062872
v -24.736126 2.026810 40.612106
v -24.736126 2.886729 40.612106
v -26.246126 2.120773 41.450565
v -26.246126 1.611494 41.450565
v -26.947607 2.120773 39.738941
v -26.947607 1.611495 39.738941
v -25.614607 2.026810 38.996738
v -25.614607 2.886730 38.996738
v -14.188978 2.078938 50.362984
v -14.188978 3.330444 50.362984
v -14.841025 2.404812 51.719894
v -14.841025 1.663623 51.719894
v -16.559542 2.404812 51.031418
v -16.559542 1.663623 51.031418
v -15.754607 2.078938 49.420525
v -15.754607 3.330444 49.420525
v 4.938028 2.024609 23.149340
v 6.280783 2.024609 25.062872
v 3.037879 2.842528 24.480375
v 4.474904 2.842528 26.320278
v 4.474904 1.833652 -26.320278
v 6.280783 1.424691 -25.062872
v 4.938028 1.424691 -23.149340
v 3.037879 1.833651 -24.480375
v -24.736126 2.026823 -40.612106
v -26.246126 1.611508 -41.450565
v -26.246126 2.120786 -41.450565
v -24.736126 2.886743 -40.612106
v -26.947607 1.611508 -39.738941
v -26.947607 2.120786 -39.738941
v -25.614607 2.026823 -38.996738
v -25.614607 2.886743 -38.996738
v -14.188978 2.078954 -50.362984
v -14.841025 1.663640 -51.719894
v -14.841025 2.404829 -51.719894
v -14.188978 3.330460 -50.362984
v -16.559542 1.663640 -51.031418
v -16.559542 2.404829 -51.031418
v -15.754607 2.078954 -49.420525
v -15.754607 3.330460 -49.420525
v 4.938028 2.024616 -23.149340
v 6.280783 2.024617 -25.062872
v 3.037879 2.842536 -24.480375
v 4.474904 2.842536 -26.320278
vn -0.4534 0.8913 0.0000
vn -0.9735 0.2285 0.0000
vn 0.3111 -0.9504 0.0000
vn -0.1103 -0.0171 0.9937
vn 0.5712 -0.8208 0.0000
vn -0.4731 -0.1829 0.8618
vn -0.8867 0.4617 -0.0223
vn -0.0593 0.4145 0.9081
vn 0.7556 0.0000 -0.6551
vn 0.9011 -0.4331 0.0187
vn 0.0660 -0.4484 -0.8914
vn 0.0000 -1.0000 -0.0000
vn -0.9191 0.0000 -0.3941
vn 0.3906 0.0000 0.9206
vn 0.0219 0.9537 -0.3000
vn -0.9146 0.0000 0.4044
vn -0.1222 0.9913 -0.0486
vn 0.9147 0.0000 0.4042
vn -0.1008 -0.9907 -0.0917
vn -0.6037 0.0000 0.7972
vn -0.0218 0.9926 0.1196
vn 0.0847 -0.9931 0.0808
vn -0.4193 0.0000 -0.9078
vn 0.6874 0.0000 0.7262
vn -0.3975 0.0000 -0.9176
vn 0.1517 0.9882 -0.0222
vn 0.0631 0.9562 -0.2858
vn 0.2403 0.9701 -0.0351
vn 0.5180 0.0000 0.8554
vn 0.2144 0.9589 -0.1859
vn -0.5180 0.0000 -0.8554
vn -0.1025 -0.9736 0.2040
vn 0.8915 0.0000 0.4530
vn -0.0970 0.9099 0.4032
vn -0.9695 0.0000 -0.2452
vn -0.4211 0.0000 -0.9070
vn -0.1834 -0.9749 0.1265
vn -0.4120 0.8981 0.1537
vn 0.2583 0.0000 0.9661
vn -0.7299 -0.4582 0.5072
vn -0.9634 0.0000 0.2680
vn -0.7299 0.4582 0.5072
vn -0.5764 0.4522 0.6806
vn -0.2527 0.0000 0.9676
vn -0.5764 -0.4522 0.6806
vn -0.1103 -0.0171 -0.9937
vn -0.4731 -0.1829 -0.8618
vn -0.8867 0.4617 0.0223
vn -0.0593 0.4145 -0.9081
vn 0.7556 0.0000 0.6551
vn 0.9011 -0.4331 -0.0187
vn 0.0660 -0.4484 0.8914
vn -0.9191 0.0000 0.3941
vn 0.3906 0.0000 -0.9206
vn 0.0219 0.9537 0.3000
vn -0.9146 0.0000 -0.4044
vn -0.1222 0.9913 0.0486
vn 0.9147 0.0000 -0.4042
vn -0.1008 -0.9907 0.0917
vn -0.6037 0.0000 -0.7972
vn -0.0218 0.9926 -0.1196
vn 0.0847 -0.9931 -0.0808
vn -0.4193 0.0000 0.9078
vn 0.6874 0.0000 -0.7262
vn -0.3975 -0.0000 0.9176
vn 0.1517 0.9882 0.0222
vn 0.0631 0.9562 0.2858
vn 0.2403 0.9701 0.0351
vn 0.5180 0.0000 -0.8554
vn 0.2144 0.9589 0.1859
vn -0.5180 0.0000 0.8554
vn -0.1025 -0.9736 -0.2040
vn 0.8915 0.0000 -0.4530
vn -0.0970 0.9099 -0.4032
vn -0.9695 0.0000 0.2452
vn -0.4211 -0.0000 0.9070
vn -0.1834 -0.9749 -0.1265
vn -0.4120 0.8981 -0.1537
vn 0.2583 0.0000 -0.9661
vn -0.7299 -0.4582 -0.5072
vn -0.9634 0.0000 -0.2680
vn -0.7299 0.4582 -0.5072
vn -0.5764 0.4522 -0.6806
vn -0.2527 0.0000 -0.9676
vn -0.5764 -0.4522 -0.6806
vn 0.2737 -0.9503 0.1482
vn -0.0359 0.9950 0.0929
vn 0.0000 -0.0000 1.0000
vn -0.9299 -0.2772 0.2417
vn -0.4137 0.2937 0.8617
vn -0.9423 -0.2732 0.1934
vn -0.7961 0.0100 0.6051
vn -0.7448 -0.6625 0.0791
vn -0.0899 0.2411 0.9663
vn -0.3302 0.9413 0.0698
vn -0.8852 0.4398 0.1520
vn 0.3185 0.9443 0.0833
vn 0.9482 0.1839 0.2590
vn -0.2558 0.8951 0.3651
vn 0.0494 -0.0235 0.9985
vn 0.5141 -0.8333 0.2030
vn 0.9569 0.0000 0.2903
vn 0.6868 -0.0636 0.7241
vn 0.8796 -0.4696 0.0753
vn 0.4198 0.7636 0.4907
vn 0.9365 0.0910 0.3386
vn -0.1127 -0.8270 -0.5508
vn -0.6226 -0.7616 0.1797
vn -0.0255 -0.5343 0.8449
vn 0.2276 -0.6258 -0.7461
vn 0.0906 -0.2492 0.9642
vn -0.6648 -0.7391 0.1085
vn 0.9841 -0.1388 0.1104
vn 0.9772 0.2099 0.0332
vn 0.1239 -0.3405 -0.9321
vn -0.0306 0.0840 0.9960
vn -0.8834 -0.4675 0.0310
vn 0.2737 -0.9503 -0.1482
vn -0.0359 0.9950 -0.0929
vn 0.0000 0.0000 -1.0000
vn -0.9299 -0.2772 -0.2417
vn -0.4137 0.2937 -0.8617
vn -0.9423 -0.2732 -0.1934
vn -0.7961 0.0100 -0.6051
vn -0.7448 -0.6625 -0.0791
vn -0.0899 0.2411 -0.9663
vn -0.3302 0.9413 -0.0698
vn -0.8852 0.4398 -0.1520
vn 0.3185 0.9443 -0.0833
vn 0.9482 0.1839 -0.2590
vn -0.2558 0.8951 -0.3651
vn 0.0494 -0.0235 -0.9985
vn 0.5141 -0.8333 -0.2030
vn 0.9569 0.0000 -0.2903
vn 0.6868 -0.0636 -0.7241
vn 0.8796 -0.4696 -0.0753
vn 0.4198 0.7636 -0.4907
vn 0.9365 0.0910 -0.3386
vn -0.1127 -0.8270 0.5508
vn -0.6226 -0.7616 -0.1797
vn -0.0255 -0.5343 -0.8449
vn 0.2276 -0.6258 0.7461
vn 0.0906 -0.2492 -0.9642
vn -0.6648 -0.7391 -0.1085
vn 0.9841 -0.1388 -0.1104
vn 0.9772 0.2099 -0.0332
vn 0.1239 -0.3405 0.9321
vn -0.0306 0.0840 -0.9960
vn -0.8834 -0.4675 -0.0310
vn -0.9239 0.3827 0.0000
vn 0.9239 0.3827 0.0000
vn 0.3827 -0.9239 0.0000
vn -0.9239 -0.3827 0.0000
vn -0.3827 0.9239 0.0000
vn 0.3827 0.9239 0.0000
vn 0.9239 -0.3827 0.0000
vn -0.3827 -0.9239 0.0000
vn -0.0188 0.0735 -0.9971
vn -0.0759 0.0637 -0.9951
vn -0.8846 -0.4663 0.0000
vn -0.0815 0.0638 -0.9946
vn -0.0778 0.0753 0.9941
vn -0.0050 0.1039 -0.9946
vn -0.0050 0.1039 0.9946
vn -0.0759 0.0637 0.9951
vn -1.0000 -0.0032 0.0000
vn -0.5718 0.8204 0.0000
vn -0.9788 0.2049 0.0000
vn -0.1856 0.9826 0.0000
vn -0.0134 0.0981 0.9951
vn 0.9101 -0.4144 0.0000
vn 0.2569 -0.9664 0.0000
vn 0.9994 0.0350 0.0000
vn 0.9888 0.1489 0.0000
vn -0.9976 0.0694 0.0000
vn -0.9257 -0.3784 0.0000
vn 0.8851 0.4654 0.0000
vn -0.8325 -0.5540 0.0000
vn 0.7699 0.6382 0.0000
vn -0.5484 0.8362 0.0000
vn -0.1017 0.0355 0.9942
vn -0.1017 0.0355 -0.9942
vn -0.0599 0.9982 0.0000
vn -0.0866 0.0480 0.9951
vn -0.0996 0.0433 -0.9941
vn -0.0270 0.0906 0.9955
vn -0.0756 0.9971 0.0000
vn -0.0334 0.0802 -0.9962
vn 0.4563 0.8898 0.0000
vn -0.0216 0.0883 0.9959
vn -0.0216 0.0883 -0.9959
vn -0.1599 0.0188 -0.9870
vn -0.1599 0.0188 0.9870
vn 0.9075 0.4201 0.0000
vn -0.0511 0.0723 0.9961
vn -0.7768 -0.6298 0.0000
vn -0.0511 0.0723 -0.9961
vn -0.0606 0.0855 -0.9945
vn -0.0389 0.0952 0.9947
vn -0.9999 0.0130 0.0000
vn 0.9800 -0.1990 0.0000
vn 0.0033 0.0976 0.9952
vn -0.0209 0.0701 -0.9973
vn -0.0182 0.0880 -0.9960
vn -0.0182 0.0880 0.9960
vn 0.8988 -0.4384 0.0000
vn 0.0302 0.1009 0.9944
vn 0.0302 0.1009 -0.9944
vn -0.1447 0.0370 -0.9888
vn -0.1072 0.0508 0.9929
vn -0.9378 -0.3472 0.0000
vn 0.9730 0.2310 0.0000
vn -0.0191 0.1045 0.9943
vn -0.0439 0.0811 -0.9957
vn 0.9660 -0.2498 0.0670
vn -0.9660 0.2498 -0.0670
vn 0.0045 -0.2558 -0.9667
vn 0.2368 0.9473 -0.2158
vn 0.0288 0.3083 0.9508
vn -0.7270 -0.6712 0.1451
vn 0.2900 -0.9416 0.1709
vn -0.0035 0.3166 0.9486
vn 0.0000 -0.2545 -0.9671
vn 0.9660 -0.2498 -0.0670
vn -0.9660 0.2498 0.0670
vn 0.0045 -0.2558 0.9667
vn 0.2368 0.9473 0.2158
vn 0.0288 0.3083 -0.9508
vn -0.7270 -0.6712 -0.1451
vn 0.2900 -0.9416 -0.1709
vn -0.0035 0.3166 -0.9486
vn 0.0000 -0.2545 0.9671
vn -0.1431 -0.9840 0.1060
vn 0.4855 0.0000 0.8743
vn -0.9253 0.0000 0.3792
vn 0.2239 -0.9688 -0.1063
vn -0.4865 0.0000 -0.8737
vn -0.3855 0.9044 0.1831
vn 0.9013 0.0000 0.4331
vn -0.3719 0.0000 0.9283
vn 0.1084 -0.9699 -0.2182
vn -0.8945 0.0000 -0.4470
vn -0.2173 0.8725 0.4376
vn -0.2256 0.9222 0.3141
vn 0.0616 -0.9944 -0.0858
vn -0.2224 0.9653 0.1372
vn 0.0466 -0.9985 -0.0288
vn 0.8186 0.0000 -0.5744
vn -0.5737 0.0000 -0.8190
vn 0.2735 0.9403 -0.2026
vn 0.5714 0.0000 0.8207
vn 0.0327 0.9991 -0.0269
vn -0.0327 -0.9991 0.0269
vn -0.1431 -0.9840 -0.1060
vn 0.4855 0.0000 -0.8743
vn -0.9253 0.0000 -0.3792
vn 0.2239 -0.9688 0.1063
vn -0.4865 0.0000 0.8737
vn -0.3855 0.9044 -0.1831
vn 0.9013 0.0000 -0.4331
vn -0.3719 0.0000 -0.9283
vn 0.1084 -0.9699 0.2182
vn -0.8945 0.0000 0.4470
vn -0.2173 0.8725 -0.4376
vn -0.2256 0.9222 -0.3141
vn 0.0616 -0.9944 0.0858
vn -0.2224 0.9653 -0.1372
vn 0.0466 -0.9985 0.0288
vn 0.8186 0.0000 0.5744
vn -0.5737 0.0000 0.8190
vn 0.2735 0.9403 0.2026
vn 0.5714 0.0000 -0.8207
vn 0.0327 0.9991 0.0269
vn -0.0327 -0.9991 -0.0269
f 17//1 26//1 166//1 167//1
f 167//2 166//2 168//2
f 19//3 18//3 169//3 170//3
f 18//4 17//4 167//4 169//4
f 170//5 169//5 168//5
f 169//6 167//6 168//6
f 46//7 45//7 171//7 172//7
f 43//8 46//8 172//8 173//8
f 174//9 175//9 176//9 177//9
f 44//10 43//10 173//10 178//10
f 45//11 44//11 178//11 171//11
f 179//12 180//12 181//12
f 182//13 183//13 184//13 185//13
f 186//14 187//14 188//14 189//14
f 171//15 178//15 190//15 191//15
f 185//16 184//16 192//16 193//16
f 194//17 182//17 185//17 195//17
f 196//18 194//18 195//18 197//18
f 183//19 196//19 197//19 184//19
f 189//20 188//20 198//20 199//20
f 187//21 200//21 201//21 188//21
f 202//22 186//22 189//22 203//22
f 200//23 202//23 203//23 201//23
f 179//12 204//12 205//12 180//12
f 206//9 174//9 177//9 207//9
f 173//24 180//24 205//24 208//24
f 179//25 171//25 191//25 204//25
f 178//26 173//26 208//26 190//26
f 191//27 190//27 175//27
f 209//28 190//28 208//28
f 208//29 205//29 206//29 209//29
f 175//9 209//9 210//9 176//9
f 175//30 190//30 209//30
f 204//31 191//31 175//31 174//31
f 181//32 180//32 196//32 183//32
f 180//33 173//33 194//33 196//33
f 173//34 172//34 182//34 194//34
f 172//35 181//35 183//35 182//35
f 171//36 179//36 202//36 200//36
f 179//37 181//37 186//37 202//37
f 172//38 171//38 200//38 187//38
f 181//39 172//39 187//39 186//39
f 203//40 189//40 199//40 211//40
f 201//41 203//41 211//41 212//41
f 188//42 201//42 212//42 198//42
f 195//43 185//43 193//43 213//43
f 197//44 195//44 213//44 214//44
f 184//45 197//45 214//45 192//45
f 204//12 174//12 206//12 205//12
f 209//9 206//9 207//9 210//9
f 56//1 215//1 166//1 26//1
f 215//2 168//2 166//2
f 19//3 170//3 216//3 55//3
f 55//46 216//46 215//46 56//46
f 170//5 168//5 216//5
f 216//47 168//47 215//47
f 75//48 217//48 218//48 74//48
f 73//49 219//49 217//49 75//49
f 220//50 221//50 222//50 223//50
f 72//51 224//51 219//51 73//51
f 74//52 218//52 224//52 72//52
f 225//12 226//12 227//12
f 228//53 229//53 230//53 231//53
f 232//54 233//54 234//54 235//54
f 218//55 236//55 237//55 224//55
f 229//56 238//56 239//56 230//56
f 240//57 241//57 229//57 228//57
f 242//58 243//58 241//58 240//58
f 231//59 230//59 243//59 242//59
f 233//60 244//60 245//60 234//60
f 235//61 234//61 246//61 247//61
f 248//62 249//62 233//62 232//62
f 247//63 246//63 249//63 248//63
f 225//12 227//12 250//12 251//12
f 252//50 253//50 221//50 220//50
f 219//64 254//64 250//64 227//64
f 225//65 251//65 236//65 218//65
f 224//66 237//66 254//66 219//66
f 236//67 223//67 237//67
f 255//68 254//68 237//68
f 254//69 255//69 252//69 250//69
f 223//50 222//50 256//50 255//50
f 223//70 255//70 237//70
f 251//71 220//71 223//71 236//71
f 226//72 231//72 242//72 227//72
f 227//73 242//73 240//73 219//73
f 219//74 240//74 228//74 217//74
f 217//75 228//75 231//75 226//75
f 218//76 247//76 248//76 225//76
f 225//77 248//77 232//77 226//77
f 217//78 235//78 247//78 218//78
f 226//79 232//79 235//79 217//79
f 249//80 257//80 244//80 233//80
f 246//81 258//81 257//81 249//81
f 234//82 245//82 258//82 246//82
f 241//83 259//83 238//83 229//83
f 243//84 260//84 259//84 241//84
f 230//85 239//85 260//85 243//85
f 251//12 250//12 252//12 220//12
f 255//50 256//50 253//50 252//50
f 1//86 2//86 3//86 4//86
f 5//87 6//87 7//87 8//87
f 4//88 8//88 7//88 9//88
f 10//89 9//89 11//89 12//89
f 9//90 7//90 13//90 11//90
f 12//91 11//91 14//91 15//91
f 14//92 16//92 17//92 18//92
f 15//93 14//93 18//93 19//93
f 11//94 13//94 20//94 14//94
f 21//95 22//95 23//95 24//95
f 16//96 25//96 26//96 17//96
f 14//88 20//88 27//88 28//88 16//88
f 7//97 6//97 29//97 13//97
f 13//98 29//98 30//98 20//98
f 28//99 31//99 25//99 16//99
f 3//100 22//100 8//100 4//100
f 21//87 5//87 8//87 22//87
f 1//101 4//101 32//101 33//101
f 24//102 23//102 34//102 35//102
f 22//103 3//103 34//103 23//103
f 3//104 2//104 35//104 34//104
f 27//105 36//105 31//105 28//105
f 20//106 30//106 36//106 27//106
f 10//107 1//107 33//107 37//107
f 9//108 10//108 37//108 38//108
f 4//109 9//109 38//109 32//109
f 37//110 33//110 39//110 40//110
f 32//111 38//111 41//111 42//111
f 38//112 37//112 40//112 41//112
f 33//113 32//113 42//113 39//113
f 39//114 42//114 43//114 44//114
f 40//115 39//115 44//115 45//115
f 42//116 41//116 46//116 43//116
f 41//117 40//117 45//117 46//117
f 1//118 47//118 48//118 2//118
f 5//119 49//119 50//119 6//119
f 47//120 51//120 50//120 49//120
f 10//121 12//121 52//121 51//121
f 51//122 52//122 53//122 50//122
f 12//123 15//123 54//123 52//123
f 54//124 55//124 56//124 57//124
f 15//125 19//125 55//125 54//125
f 52//126 54//126 58//126 53//126
f 21//127 24//127 59//127 60//127
f 57//128 56//128 26//128 25//128
f 54//120 57//120 61//120 62//120 58//120
f 50//129 53//129 29//129 6//129
f 53//130 58//130 30//130 29//130
f 61//131 57//131 25//131 31//131
f 48//132 47//132 49//132 60//132
f 21//119 60//119 49//119 5//119
f 1//133 63//133 64//133 47//133
f 24//134 35//134 65//134 59//134
f 60//135 59//135 65//135 48//135
f 48//136 65//136 35//136 2//136
f 62//137 61//137 31//137 36//137
f 58//138 62//138 36//138 30//138
f 10//139 66//139 63//139 1//139
f 51//140 67//140 66//140 10//140
f 47//141 64//141 67//141 51//141
f 66//142 68//142 69//142 63//142
f 64//143 70//143 71//143 67//143
f 67//144 71//144 68//144 66//144
f 63//145 69//145 70//145 64//145
f 69//146 72//146 73//146 70//146
f 68//147 74//147 72//147 69//147
f 70//148 73//148 75//148 71//148
f 71//149 75//149 74//149 68//149
f 261//88 262//88 263//88
f 264//88 265//88 263//88
f 266//88 267//88 263//88
f 262//88 268//88 263//88
f 269//88 261//88 263//88
f 265//88 269//88 263//88
f 267//88 264//88 263//88
f 268//88 266//88 263//88
f 261//150 270//150 271//150 262//150
f 264//151 272//151 273//151 265//151
f 266//152 274//152 275//152 267//152
f 262//153 271//153 276//153 268//153
f 269//154 277//154 270//154 261//154
f 265//155 273//155 277//155 269//155
f 267//156 275//156 272//156 264//156
f 268//157 276//157 274//157 266//157
f 278//120 279//120 280//120
f 281//120 279//120 282//120
f 283//120 279//120 284//120
f 280//120 279//120 285//120
f 286//120 279//120 278//120
f 282//120 279//120 286//120
f 284//120 279//120 281//120
f 285//120 279//120 283//120
f 278//150 280//150 287//150 288//150
f 281//151 282//151 289//151 290//151
f 283//152 284//152 291//152 292//152
f 280//153 285//153 293//153 287//153
f 286//154 278//154 288//154 294//154
f 282//155 286//155 294//155 289//155
f 284//156 281//156 290//156 291//156
f 285//157 283//157 292//157 293//157
f 76//158 77//158 78//158 79//158
f 80//159 81//159 82//159 83//159
f 84//160 85//160 86//160 87//160
f 88//161 89//161 90//161 91//161
f 92//162 93//162 94//162 95//162
f 96//163 97//163 98//163 99//163
f 100//164 101//164 102//164 103//164
f 104//165 105//165 106//165 107//165
f 108//166 109//166 87//166 86//166
f 110//167 111//167 112//167 113//167
f 114//168 115//168 116//168 117//168
f 118//169 119//169 120//169 121//169
f 122//170 123//170 124//170 125//170
f 105//171 83//171 82//171 106//171
f 93//171 91//171 90//171 94//171
f 123//172 79//172 78//172 124//172
f 101//172 99//172 98//172 102//172
f 103//173 97//173 126//173 127//173
f 125//174 77//174 128//174 129//174
f 130//175 131//175 78//175 124//175
f 132//176 133//176 90//176 94//176
f 95//177 89//177 134//177 135//177
f 136//178 137//178 82//178 106//178
f 107//179 81//179 138//179 139//179
f 140//171 141//171 83//171 105//171
f 139//180 138//180 109//180 108//180
f 85//181 140//181 105//181 104//181
f 84//182 80//182 83//182 141//182
f 106//171 82//171 91//171 93//171
f 135//183 134//183 115//183 114//183
f 136//184 106//184 93//184 92//184
f 137//185 88//185 91//185 82//185
f 94//172 90//172 79//172 123//172
f 132//186 94//186 123//186 122//186
f 129//187 128//187 111//187 110//187
f 133//188 76//188 79//188 90//188
f 124//172 78//172 99//172 101//172
f 127//189 126//189 119//189 118//189
f 130//190 124//190 101//190 100//190
f 131//191 96//191 99//191 78//191
f 87//192 109//192 80//192 84//192
f 86//193 85//193 104//193 108//193
f 106//194 82//194 81//194 107//194
f 108//195 104//195 107//195 139//195
f 141//196 140//196 85//196 84//196
f 109//197 138//197 81//197 80//197
f 112//198 111//198 76//198 133//198
f 113//199 132//199 122//199 110//199
f 113//200 112//200 133//200 132//200
f 124//201 78//201 77//201 125//201
f 110//202 122//202 125//202 129//202
f 111//203 128//203 77//203 76//203
f 120//204 119//204 96//204 131//204
f 121//205 130//205 100//205 118//205
f 121//175 120//175 131//175 130//175
f 102//206 98//206 97//206 103//206
f 118//207 100//207 103//207 127//207
f 119//208 126//208 97//208 96//208
f 116//209 115//209 88//209 137//209
f 117//210 136//210 92//210 114//210
f 117//211 116//211 137//211 136//211
f 94//212 90//212 89//212 95//212
f 114//213 92//213 95//213 135//213
f 115//214 134//214 89//214 88//214
f 142//215 143//215 144//215 145//215
f 146//216 147//216 148//216 149//216
f 150//217 151//217 146//217 149//217
f 152//218 150//218 149//218 148//218
f 153//219 152//219 148//219 147//219
f 151//220 153//220 147//220 146//220
f 142//221 145//221 153//221 151//221
f 145//222 144//222 152//222 153//222
f 144//218 143//218 150//218 152//218
f 143//223 142//223 151//223 150//223
f 154//224 155//224 156//224 157//224
f 158//225 159//225 160//225 161//225
f 162//226 159//226 158//226 163//226
f 164//227 160//227 159//227 162//227
f 165//228 161//228 160//228 164//228
f 163//229 158//229 161//229 165//229
f 154//230 163//230 165//230 155//230
f 155//231 165//231 164//231 156//231
f 156//227 164//227 162//227 157//227
f 157//232 162//232 163//232 154//232
f 295//233 296//233 297//233 298//233
f 299//234 300//234 301//234 302//234
f 301//235 303//235 304//235 302//235
f 305//236 299//236 302//236 304//236
f 306//237 305//237 304//237 303//237
f 300//238 306//238 303//238 301//238
f 307//239 308//239 309//239 310//239
f 309//240 311//240 312//240 310//240
f 313//241 307//241 310//241 312//241
f 314//242 313//242 312//242 311//242
f 308//243 314//243 311//243 309//243
f 213//244 193//244 314//244 308//244
f 193//242 192//242 313//242 314//242
f 192//245 214//245 307//245 313//245
f 214//239 213//239 308//239 307//239
f 198//246 212//246 306//246 300//246
f 212//237 211//237 305//237 306//237
f 211//247 199//247 299//247 305//247
f 199//234 198//234 300//234 299//234
f 315//248 316//248 298//248 297//248
f 296//249 317//249 315//249 297//249
f 317//250 318//250 316//250 315//250
f 318//251 295//251 298//251 316//251
f 210//251 207//251 295//251 318//251
f 176//252 210//252 318//252 317//252
f 177//249 176//249 317//249 296//249
f 207//253 177//253 296//253 295//253
f 319//254 320//254 321//254 322//254
f 323//255 324//255 325//255 326//255
f 325//256 324//256 327//256 328//256
f 329//257 327//257 324//257 323//257
f 330//258 328//258 327//258 329//258
f 326//259 325//259 328//259 330//259
f 331//260 332//260 333//260 334//260
f 333//261 332//261 335//261 336//261
f 337//262 335//262 332//262 331//262
f 338//263 336//263 335//263 337//263
f 334//264 333//264 336//264 338//264
f 259//265 334//265 338//265 238//265
f 238//263 338//263 337//263 239//263
f 239//266 337//266 331//266 260//266
f 260//260 331//260 334//260 259//260
f 245//267 326//267 330//267 258//267
f 258//258 330//258 329//258 257//258
f 257//268 329//268 323//268 244//268
f 244//255 323//255 326//255 245//255
f 339//269 321//269 320//269 340//269
f 322//270 321//270 339//270 341//270
f 341//271 339//271 340//271 342//271
f 342//272 340//272 320//272 319//272
f 256//272 342//272 319//272 253//272
f 222//273 341//273 342//273 256//273
f 221//270 322//270 341//270 222//270
f 253//274 319//274 322//274 221//274
